<svg width="51" height="50" viewBox="0 0 51 50" fill="none" xmlns="http://www.w3.org/2000/svg">
<path d="M44.5031 19.237C44.3924 19.206 44.2627 19.1425 44.2669 19.0363C44.27 18.9566 44.3499 18.9002 44.4226 18.8567C44.5179 18.7997 44.6143 18.7441 44.7116 18.69C44.8884 18.5917 45.0686 18.4982 45.2515 18.4097C44.2347 16.5967 42.2235 15.35 39.9795 14.9902L39.9786 14.99C39.1553 14.8581 38.3007 14.8455 37.4523 14.9683C34.7395 15.3607 32.4408 17.01 30.5866 18.9624C31.4209 16.754 31.8104 14.368 31.1626 12.0741C31.0262 11.5909 30.8445 11.1242 30.6238 10.6798C29.4385 8.29307 27.1276 6.54788 24.6497 6.32467C24.6702 6.63134 24.6417 6.94133 24.5634 7.23855C24.5353 7.3451 24.4743 7.471 24.3641 7.47104C24.2813 7.47107 24.2199 7.39715 24.172 7.32955C24.1093 7.24093 24.0481 7.1513 23.9884 7.0607C23.8718 6.88393 23.761 6.70339 23.6559 6.51956C23.5466 6.59517 23.4438 6.68461 23.3446 6.77517C22.0224 7.98221 21.0225 9.59154 20.4428 11.365C20.071 12.5025 19.8719 13.7075 19.8715 14.9173C19.871 16.4441 20.1857 17.9647 20.7623 19.3573C18.4285 17.6394 15.6506 16.295 12.6915 16.4396H12.6913C12.6769 16.4403 12.6624 16.441 12.6479 16.4418C9.36653 16.6183 6.38046 18.7071 5.49841 21.4837C5.87428 21.5671 6.23345 21.7264 6.54589 21.9515C6.63531 22.0159 6.73098 22.1179 6.69153 22.2208C6.66184 22.2982 6.57084 22.329 6.49059 22.3494C6.38538 22.3762 6.27978 22.4012 6.17377 22.4246C5.95383 22.4729 5.73223 22.5137 5.50951 22.547C5.5588 22.6504 5.61788 22.7514 5.67836 22.85C6.70437 24.5235 8.29099 25.9304 10.1544 26.8828C11.0995 27.3658 12.1159 27.732 13.1664 27.9566C15.27 28.4065 17.4846 28.2856 19.468 27.6581C17.4709 28.6369 15.7216 30.2183 14.5571 32.1658C13.9257 33.2219 13.4714 34.3786 13.2036 35.5691L13.2033 35.5708C12.7767 37.4687 12.8242 39.4526 13.3847 41.2523C13.4131 41.3434 13.4433 41.4349 13.4782 41.5239C13.8319 41.2832 14.2327 41.1116 14.6517 41.0248C14.7755 40.9992 14.936 40.9975 14.9924 41.1106C15.0348 41.1957 14.9902 41.2966 14.9453 41.3803C14.8863 41.49 14.8255 41.5987 14.763 41.7064C14.6321 41.9319 14.4935 42.1528 14.3475 42.3687C17.0311 43.6601 20.5552 43.0965 22.9642 41.0588L22.9649 41.0583C23.0637 40.9747 23.1606 40.8886 23.2555 40.8001C25.463 38.7414 26.3337 35.7147 26.5925 32.7524C27.1987 35.273 28.326 37.7146 30.392 39.3308C30.6715 39.5495 30.9644 39.7483 31.2674 39.927C33.6383 41.3245 36.6387 41.486 38.8757 40.2545C38.6296 39.9498 38.4386 39.6005 38.3176 39.2279C38.2792 39.1095 38.2601 38.9525 38.3649 38.8851C38.4436 38.8344 38.5472 38.8671 38.634 38.9021C38.7478 38.948 38.8609 38.9958 38.973 39.0454C39.2389 39.1629 39.5001 39.2908 39.756 39.4286C39.8076 39.2906 39.8413 39.1425 39.8705 38.9959C40.2335 37.1765 40.0641 35.2132 39.4313 33.3816L39.4312 33.3815C39.0571 32.2987 38.521 31.2619 37.8371 30.3281C36.8724 29.011 35.6237 27.9105 34.23 27.1075C35.903 27.129 37.6161 26.7986 39.1853 26.1184C40.171 25.691 41.0936 25.1278 41.92 24.4618C43.4886 23.1976 44.7105 21.5629 45.3596 19.7836C45.411 19.6427 45.4593 19.4982 45.4857 19.3539C45.1542 19.3651 44.8205 19.3262 44.5031 19.237Z" fill="#F7BFCA"/>
<path d="M41.2446 19.9586C40.2205 18.0214 37.7155 16.9029 35.2788 17.2553C32.4781 17.6605 30.2595 19.8318 28.6809 21.9452C29.0978 22.2628 29.4197 22.7072 29.6013 23.2008C30.8947 22.6549 32.3317 22.3828 33.7249 22.1304L29.7126 23.5886C29.7506 23.7716 29.7693 23.9583 29.7667 24.1451C29.7667 24.1453 29.7667 24.1454 29.7667 24.1455C29.7665 24.1583 29.7662 24.171 29.7658 24.1838C29.7657 24.1871 29.7655 24.1904 29.7654 24.1938C29.7651 24.2036 29.7648 24.2134 29.7643 24.2233C29.7637 24.2366 29.763 24.25 29.7622 24.2634L29.7619 24.267C29.7611 24.2799 29.7602 24.2928 29.7591 24.3056L29.759 24.3082L29.7588 24.3103L36.1382 23.8881C34.0309 24.3936 31.8314 24.8984 29.7062 24.6594L29.7001 24.6906C29.6892 24.7456 29.6782 24.8006 29.6685 24.8557C29.6671 24.8636 29.6657 24.8714 29.6644 24.8793C29.6444 24.9974 29.6309 25.1157 29.6369 25.2353C29.6395 25.2878 29.6459 25.3399 29.6546 25.3917C29.6575 25.4089 29.6607 25.4261 29.6641 25.4433L29.6706 25.4748C29.6776 25.5079 29.6853 25.5408 29.6933 25.5737L29.6964 25.5866C29.7002 25.6019 29.704 25.6172 29.7079 25.6326C29.7123 25.6501 29.7167 25.6676 29.7211 25.6851L29.7277 25.7113C29.7315 25.7267 29.7353 25.7421 29.7391 25.7575C29.7417 25.7684 29.7443 25.7793 29.7469 25.7902L29.7529 25.8165L29.7589 25.8438C29.7891 25.8566 29.8192 25.8697 29.8495 25.8819C29.9736 25.9321 30.0994 25.979 30.2269 26.0227C30.0774 25.9897 29.9273 25.9612 29.7769 25.9373C29.7849 25.9853 29.7909 26.0336 29.7937 26.0823C29.7998 26.1902 29.7904 26.2955 29.768 26.3976C29.7639 26.4161 29.7593 26.4346 29.7544 26.4529C29.7297 26.5446 29.6945 26.6336 29.6508 26.7193C29.642 26.7365 29.6329 26.7535 29.6235 26.7704C29.6141 26.7872 29.6043 26.804 29.5942 26.8206C29.5842 26.8372 29.5738 26.8537 29.5631 26.8701C29.5524 26.8864 29.5414 26.9026 29.5301 26.9187C29.5188 26.9347 29.5073 26.9507 29.4955 26.9664C29.4836 26.9822 29.4715 26.9978 29.4592 27.0133C29.4468 27.0288 29.4342 27.0441 29.4213 27.0593C29.4149 27.0669 29.4084 27.0744 29.4019 27.0819C29.3888 27.0969 29.3754 27.1118 29.3619 27.1265C29.3551 27.1339 29.3483 27.1412 29.3414 27.1484C29.3208 27.1703 29.2996 27.1917 29.2781 27.2128C29.2684 27.2222 29.2587 27.2316 29.2489 27.2409C29.2453 27.2443 29.2418 27.2475 29.2382 27.2509C29.2316 27.257 29.2251 27.2631 29.2185 27.2692C29.2149 27.2725 29.2112 27.2757 29.2076 27.279C29.2008 27.2851 29.194 27.2913 29.1871 27.2973C29.1836 27.3004 29.1802 27.3035 29.1767 27.3065C29.1693 27.3129 29.162 27.3193 29.1546 27.3256C29.1516 27.3282 29.1487 27.3307 29.1458 27.3332C29.1373 27.3404 29.1288 27.3475 29.1202 27.3546C29.1182 27.3562 29.1162 27.3579 29.1142 27.3596C29.0812 27.3867 29.0475 27.4131 29.0135 27.4386C29.0133 27.4387 29.0131 27.4388 29.0129 27.439C30.0871 28.491 30.9104 29.8323 31.6947 31.1344L28.6905 27.6494C28.6882 27.6508 28.6859 27.6521 28.6836 27.6534C28.6763 27.6576 28.669 27.6619 28.6617 27.666C28.6578 27.6682 28.654 27.6705 28.6501 27.6726C28.642 27.6772 28.6339 27.6818 28.6258 27.6864C28.6233 27.6878 28.6207 27.6893 28.6182 27.6907C28.6093 27.6957 28.6004 27.7007 28.5914 27.7056C28.5886 27.7072 28.5858 27.7087 28.583 27.7102C28.5744 27.715 28.5658 27.7197 28.5571 27.7245C28.5545 27.7259 28.5518 27.7274 28.5491 27.7288C28.5404 27.7336 28.5317 27.7383 28.5229 27.7431C28.5198 27.7447 28.5168 27.7464 28.5137 27.7481C28.5051 27.7527 28.4965 27.7573 28.4879 27.7619L28.4797 27.7662C28.4708 27.771 28.4618 27.7758 28.4528 27.7805C28.4501 27.7819 28.4475 27.7833 28.4448 27.7847C28.4367 27.789 28.4285 27.7933 28.4203 27.7976C28.4163 27.7997 28.4123 27.8018 28.4083 27.8038C28.4003 27.808 28.3924 27.8121 28.3844 27.8162C28.3811 27.818 28.3778 27.8197 28.3745 27.8214C28.3663 27.8257 28.358 27.8299 28.3497 27.8342C28.3458 27.8362 28.342 27.8382 28.3381 27.8402C28.3319 27.8434 28.3256 27.8466 28.3193 27.8498C28.3128 27.8532 28.3063 27.8565 28.2999 27.8598C28.2954 27.862 28.291 27.8643 28.2866 27.8666C28.2792 27.8703 28.2719 27.8741 28.2645 27.8778C28.2603 27.88 28.2561 27.8821 28.2518 27.8843C28.2453 27.8876 28.2388 27.891 28.2322 27.8943C28.2133 27.9039 28.1944 27.9135 28.1754 27.9231C28.1637 27.9291 28.152 27.935 28.1403 27.941C28.1376 27.9423 28.1349 27.9437 28.1323 27.945L30.908 34.0145C29.6507 32.1699 28.3593 30.2336 27.858 28.0873C27.8579 28.0873 27.8578 28.0874 27.8577 28.0874C27.8468 28.0933 27.8359 28.0992 27.8251 28.105C27.8233 28.106 27.8215 28.107 27.8198 28.1079C27.8104 28.113 27.8011 28.1181 27.7917 28.1233C27.7889 28.1248 27.786 28.1264 27.7831 28.128C27.7747 28.1326 27.7663 28.1373 27.7579 28.142C27.7543 28.144 27.7506 28.146 27.747 28.148C27.7354 28.1545 27.7237 28.1611 27.7121 28.1677C27.677 28.1877 27.6421 28.2081 27.6075 28.2289C27.5729 28.2498 27.5387 28.271 27.5048 28.2929C27.4823 28.3074 27.4598 28.3222 27.4376 28.3373C27.4133 28.3537 27.3893 28.3704 27.3655 28.3875C27.3496 28.3989 27.3338 28.4105 27.3182 28.4222L27.2948 28.4399C27.2792 28.4517 27.2638 28.4638 27.2485 28.476C27.2256 28.4943 27.2029 28.5131 27.1805 28.5323C27.1576 28.5519 27.1351 28.572 27.1127 28.5923C27.1015 28.6025 27.0904 28.6127 27.0793 28.623L27.0627 28.6385C27.0517 28.6488 27.0406 28.6591 27.0296 28.6695L27.0051 28.6927C26.9918 28.7052 26.9786 28.7177 26.9653 28.7302C26.9255 28.7677 26.8854 28.8048 26.8443 28.8406L26.8216 28.8602L26.8029 28.876C26.7598 28.9119 26.7155 28.9461 26.6689 28.9774C26.6565 28.9858 26.6438 28.994 26.6311 29.002C26.5757 29.0365 26.5176 29.0664 26.4574 29.0914C26.7431 31.673 27.5513 34.543 29.7065 36.2291C31.6509 37.7502 34.4373 38.004 36.3634 36.7988C36.4808 36.7253 36.5969 36.6455 36.6825 36.5358C36.8043 36.3797 36.8551 36.1755 36.8951 35.975C37.3331 33.7795 36.7491 31.3074 35.3529 29.4013C34.2818 27.9388 32.7491 26.8287 31.0852 26.263C32.862 26.6549 34.8452 26.4694 36.5931 25.7117C38.7597 24.7725 40.5241 22.9677 41.2758 20.9074C41.3444 20.7192 41.4057 20.5227 41.3819 20.3329C41.3651 20.1995 41.307 20.0767 41.2446 19.9586Z" fill="#F192AD"/>
<path d="M34.2299 27.1076C35.6236 27.9105 36.8722 29.011 37.837 30.3281C38.5209 31.2619 39.057 32.2987 39.4311 33.3815C39.5923 33.3532 39.7521 33.3187 39.9098 33.2783C39.8895 33.162 39.8686 33.0458 39.8454 32.9299C39.7338 32.3745 39.5885 31.8259 39.4088 31.2886C39.2394 30.7824 39.0159 30.2978 38.8415 29.7939C38.5877 29.0603 38.4059 28.1758 38.8485 27.4748C39.3656 26.6558 40.4247 26.4728 41.2563 26.1286C41.7272 25.9337 42.1975 25.6701 42.5049 25.2526C42.5188 25.2338 42.5313 25.2142 42.5448 25.1951C42.3753 24.9963 42.2059 24.7974 42.0364 24.5986C41.9975 24.553 41.9587 24.5074 41.9198 24.4618C41.0935 25.1279 40.1709 25.6911 39.1851 26.1184C37.616 26.7986 35.9029 27.129 34.2299 27.1076Z" fill="#DC638E"/>
<path d="M44.0918 27.0102L42.5448 25.1951C42.5314 25.2142 42.5189 25.2338 42.505 25.2526C42.1976 25.6701 41.7273 25.9337 41.2564 26.1286C40.4247 26.4728 39.3657 26.6558 38.8485 27.4748C38.406 28.1758 38.5878 29.0603 38.8416 29.7939C39.016 30.2978 39.2395 30.7824 39.4089 31.2886C39.5886 31.8259 39.7339 32.3745 39.8455 32.9299C39.8686 33.0451 39.8893 33.1606 39.9095 33.2761C40.65 33.0865 41.3471 32.7705 41.9476 32.3662C43.0104 31.6507 43.813 30.6928 44.4905 29.6814C45.1764 28.6575 44.9651 28.0349 44.0918 27.0102Z" fill="#EF82A4"/>
<path d="M13.0424 29.9472C12.8053 29.576 12.4341 29.3253 12.0557 29.115C11.6098 28.8671 11.127 28.6673 10.7115 28.3685C10.338 28.1 10.0563 27.7266 9.89262 27.2996C9.33181 28.1925 8.77102 29.0853 8.21025 29.9783C7.49418 31.1184 7.37505 31.7649 8.2017 32.679C9.01819 33.5818 9.95078 34.4138 11.1058 34.9682C11.5207 35.1673 11.9536 35.3209 12.4204 35.4311C12.3792 34.808 12.4711 34.1836 12.6546 33.588C12.8721 32.8821 13.1996 32.2063 13.3107 31.4705C13.3873 30.9641 13.3223 30.3855 13.0424 29.9472Z" fill="#EF82A4"/>
<path d="M10.7114 28.3685C11.1269 28.6673 11.6097 28.8671 12.0556 29.115C12.434 29.3253 12.8053 29.576 13.0423 29.9472C13.3222 30.3855 13.3872 30.9641 13.3107 31.4705C13.1995 32.2063 12.8721 32.8821 12.6545 33.588C12.471 34.1836 12.3791 34.808 12.4203 35.4311C12.6766 35.4923 12.9385 35.5388 13.2036 35.5691C13.4714 34.3786 13.9257 33.2219 14.5571 32.1658C15.7215 30.2183 17.4709 28.6369 19.4679 27.6581C17.4845 28.2856 15.27 28.4065 13.1664 27.9566C12.1158 27.7319 11.0995 27.3658 10.1543 26.8828C10.0671 27.0217 9.97983 27.1606 9.89258 27.2996C10.0562 27.7266 10.3379 28.1 10.7114 28.3685Z" fill="#DC638E"/>
<path d="M26.1341 29.1776C26.1189 29.1796 26.1036 29.1812 26.0882 29.1826C26.0729 29.184 26.0575 29.185 26.0422 29.1858C26.0114 29.1874 25.9806 29.1879 25.9498 29.1872L25.9267 29.1864C25.8963 29.1851 25.8661 29.1827 25.8361 29.1794C25.818 29.1773 25.8001 29.1749 25.7822 29.1722C25.7643 29.1695 25.7465 29.1664 25.7288 29.163L25.711 29.1595C25.6815 29.1535 25.6522 29.1466 25.6231 29.1389L25.6056 29.1342C25.594 29.131 25.5824 29.1277 25.5708 29.1242C25.5535 29.1191 25.5362 29.1136 25.5189 29.108C25.4959 29.1004 25.473 29.0924 25.4502 29.084C25.4389 29.0798 25.4275 29.0755 25.4161 29.0711C25.2177 28.9942 25.0268 28.8887 24.8407 28.7847C24.7708 28.7456 24.7008 28.7065 24.6309 28.6674C24.0517 30.2201 22.9853 31.601 21.9467 32.9204L24.3436 28.5068C24.1887 28.4202 24.0338 28.3336 23.8788 28.2469L18.9747 33.2042C20.303 31.3063 21.7106 29.3393 23.6471 28.1174C23.4675 28.0169 23.2877 27.9165 23.108 27.816C23.0604 27.7894 23.0124 27.7623 22.9645 27.7346C22.9165 27.7069 22.8686 27.6785 22.8212 27.6493C22.7873 27.6284 22.7536 27.6071 22.7204 27.5853C22.6738 27.5547 22.6281 27.5232 22.5836 27.4905C22.5645 27.4765 22.5456 27.4623 22.527 27.4478C22.5135 27.4373 22.5002 27.4266 22.4869 27.4158C22.4577 27.392 22.4292 27.3676 22.4015 27.3425L22.3844 27.3267C22.3562 27.3004 22.3289 27.2732 22.3027 27.2452L22.2872 27.2283C22.2363 27.1723 22.19 27.1129 22.1495 27.0497C20.0703 27.6401 18.1792 29.0885 17.0341 31.0037C15.7917 33.0817 15.4531 35.6735 16.145 37.895C16.2082 38.0979 16.283 38.3037 16.4262 38.4539C16.5269 38.5596 16.656 38.6319 16.7858 38.6976C18.9146 39.7754 21.7781 39.2801 23.6311 37.552C25.8854 35.4496 26.3016 32.0161 26.2216 29.1633C26.2065 29.1663 26.1914 29.169 26.1762 29.1715C26.1623 29.1738 26.1482 29.1758 26.1341 29.1776Z" fill="#F192AD"/>
<path d="M21.9561 26.1015C21.9554 25.9335 21.9533 25.7652 21.9221 25.6016C21.903 25.5011 21.8731 25.4036 21.8392 25.307C21.8285 25.2767 21.8175 25.2464 21.8063 25.2162C21.7963 25.1891 21.7861 25.1621 21.7759 25.1351C21.7727 25.1266 21.7695 25.1182 21.7664 25.1098C21.7188 24.983 21.6724 24.8559 21.643 24.7241C20.0565 24.5467 18.5047 23.9098 17.0148 23.2826L21.6226 24.357L21.6235 24.3486L21.6256 24.3307L21.627 24.3192L21.6304 24.2953L21.6325 24.2823L21.636 24.2616L21.6383 24.2491L21.6415 24.2323L21.6443 24.219L21.6478 24.203L21.6509 24.1896L21.6548 24.1734L21.658 24.1604L21.6624 24.1436L21.6658 24.1311L21.671 24.1129L21.6742 24.102L21.683 24.0735L21.6852 24.0671L21.6927 24.0443L21.6967 24.033L21.703 24.0154L21.7077 24.0027L21.7139 23.9862L21.7189 23.9735L21.7255 23.9568L21.7306 23.9443L21.7378 23.9275L21.743 23.9153L21.751 23.8972L21.7558 23.8865L21.769 23.8583L21.7723 23.8515L21.783 23.8296L21.7886 23.8185L21.7975 23.801L21.8039 23.7888L21.8085 23.7799L15.9529 20.4923C18.0783 21.2494 20.287 22.0618 21.9636 23.5294L21.9688 23.5221L21.979 23.5079L21.989 23.4942L21.9992 23.4803L22.0091 23.4669L22.0247 23.4465L22.0378 23.4294L22.05 23.4137L22.06 23.4012L22.0716 23.3867L22.083 23.3728L22.093 23.3606L22.1051 23.3459L22.1157 23.3334L22.1276 23.3194L22.1383 23.3069L22.1505 23.2929L22.1616 23.2803L22.1737 23.2665L22.1836 23.2557L22.2096 23.227L22.2198 23.2161L22.235 23.1999L22.2433 23.191L22.2582 23.1755L22.2688 23.1645L22.2831 23.15L22.293 23.1399L22.3084 23.1243L22.3179 23.115L22.3337 23.0993L22.3411 23.092C22.3629 23.0709 22.3849 23.0499 22.4073 23.0291L22.4086 23.0279L22.4283 23.0097L22.4353 23.0033L22.4536 22.9867L22.462 22.9791L22.4803 22.9629L22.4887 22.9554L22.5072 22.9393L22.5155 22.9322L22.5349 22.9155L22.5386 22.9123C22.5711 22.8847 22.6041 22.8575 22.6375 22.8307L22.643 22.8263L22.664 22.8097L22.6714 22.8039L22.6933 22.7869L22.6984 22.7829L22.7222 22.7647L22.7244 22.7629C22.7379 22.7527 22.7514 22.7426 22.765 22.7325C22.7921 22.7124 22.8195 22.6925 22.8471 22.673C22.8608 22.6632 22.8747 22.6535 22.8886 22.6439L22.8917 22.6418L22.9178 22.6239L22.9199 22.6225C22.9316 22.6145 22.9434 22.6066 22.9552 22.5988C22.9583 22.5967 22.9613 22.5947 22.9644 22.5927C22.9743 22.5861 22.9842 22.5796 22.9941 22.5732C22.9962 22.5718 22.9982 22.5705 23.0003 22.5691C23.0123 22.5613 23.0243 22.5536 23.0363 22.546C23.0385 22.5446 23.0407 22.5432 23.043 22.5418C23.0532 22.5353 23.0635 22.5288 23.0737 22.5225C23.0762 22.5209 23.0787 22.5193 23.0812 22.5178C23.1058 22.5026 23.1304 22.4876 23.1551 22.473C23.1575 22.4715 23.1598 22.4701 23.1622 22.4687C23.1742 22.4616 23.1862 22.4546 23.1982 22.4476C23.1985 22.4475 23.1988 22.4473 23.199 22.4471C23.2119 22.4397 23.2248 22.4323 23.2377 22.425C23.2393 22.4241 23.2409 22.4232 23.2424 22.4223C23.2543 22.4156 23.2662 22.409 23.2781 22.4024C23.279 22.4019 23.28 22.4014 23.2809 22.4009C23.3071 22.3864 23.3333 22.3723 23.3595 22.3585C23.3607 22.3579 23.3619 22.3573 23.363 22.3567C23.8299 22.1116 24.3069 21.9681 24.6767 21.9825C24.8118 21.9878 24.9485 21.9991 25.0856 22.0099C24.5424 20.5636 24.3813 18.9516 24.2394 17.3949L25.4748 22.0337C25.6711 22.0395 25.8647 22.0313 26.051 21.9897L26.2031 15.1461C26.5345 17.3817 26.8562 19.7172 26.3452 21.89C26.5564 21.7904 26.74 21.6363 26.9571 21.5502C27.3076 21.4113 27.7087 21.4661 28.0613 21.5996C28.2757 21.6807 28.476 21.7925 28.6586 21.9285C29.7685 19.8197 30.5535 17.327 29.8859 14.9631C29.219 12.6016 27.1284 10.7616 24.8696 10.5963C24.7319 10.5863 24.5915 10.582 24.458 10.6197C24.2681 10.6733 24.1069 10.8071 23.9566 10.9443C22.3106 12.4469 21.3234 14.7715 21.3226 17.1194C21.3221 18.5446 21.6837 19.9627 22.3322 21.2013C20.3923 19.5826 17.9384 18.1547 15.2954 18.2968C12.7755 18.4323 10.4851 20.0549 9.84862 22.2004C9.80981 22.3312 9.7763 22.4658 9.78653 22.6028C9.80109 22.7977 9.9025 22.9822 10.0096 23.1569C11.1825 25.0697 13.3212 26.5234 15.6886 27.0298C17.8364 27.4891 20.1366 27.1639 21.9565 26.173C21.9564 26.1621 21.9564 26.1513 21.9564 26.1405C21.9562 26.1274 21.9562 26.1144 21.9561 26.1015Z" fill="#F192AD"/>
<path d="M26.669 28.9774C26.7155 28.9461 26.7598 28.9119 26.8029 28.876L26.8217 28.8602L26.8443 28.8406C26.8854 28.8048 26.9255 28.7677 26.9653 28.7302C26.9786 28.7177 26.9919 28.7052 27.0051 28.6927L27.0297 28.6695C27.0407 28.6591 27.0517 28.6488 27.0627 28.6385L27.0794 28.623C27.0904 28.6127 27.1016 28.6025 27.1127 28.5923C27.1351 28.572 27.1576 28.5519 27.1805 28.5323C27.2029 28.5131 27.2256 28.4943 27.2485 28.476C27.2638 28.4638 27.2793 28.4517 27.2948 28.4399L27.3182 28.4222C27.3339 28.4105 27.3496 28.3989 27.3655 28.3875C27.3893 28.3705 27.4133 28.3537 27.4376 28.3373C27.4598 28.3222 27.4823 28.3074 27.5049 28.2929C27.5387 28.2711 27.573 28.2498 27.6076 28.2289C27.6421 28.2081 27.677 28.1877 27.7121 28.1677C27.7237 28.1611 27.7354 28.1545 27.7471 28.148C27.7507 28.146 27.7543 28.144 27.7579 28.142C27.7663 28.1373 27.7747 28.1326 27.7831 28.128C27.786 28.1264 27.7889 28.1248 27.7918 28.1233C27.8011 28.1181 27.8104 28.113 27.8198 28.1079C27.8216 28.107 27.8233 28.106 27.8251 28.105C27.836 28.0992 27.8468 28.0933 27.8577 28.0874C27.8578 28.0874 27.8579 28.0873 27.858 28.0873C27.9486 28.0387 28.0403 27.9918 28.1323 27.945C28.135 27.9436 28.1376 27.9423 28.1403 27.9409C28.152 27.935 28.1638 27.929 28.1755 27.9231C28.1944 27.9135 28.2133 27.9039 28.2323 27.8943C28.2388 27.8909 28.2453 27.8876 28.2519 27.8843C28.2561 27.8821 28.2603 27.8799 28.2645 27.8778C28.2719 27.8741 28.2792 27.8703 28.2866 27.8666C28.291 27.8643 28.2955 27.862 28.2999 27.8598C28.3064 27.8565 28.3128 27.8531 28.3193 27.8498C28.3256 27.8466 28.3319 27.8434 28.3381 27.8401C28.342 27.8381 28.3459 27.8361 28.3498 27.8341C28.358 27.8299 28.3663 27.8256 28.3746 27.8213C28.3779 27.8196 28.3811 27.8179 28.3845 27.8162C28.3924 27.8121 28.4004 27.8079 28.4083 27.8038C28.4123 27.8017 28.4163 27.7996 28.4203 27.7975C28.4285 27.7933 28.4367 27.7889 28.4449 27.7847C28.4475 27.7833 28.4502 27.7819 28.4528 27.7805C28.4618 27.7757 28.4708 27.7709 28.4798 27.7662L28.4879 27.7618C28.4965 27.7572 28.5051 27.7526 28.5137 27.748C28.5168 27.7464 28.5199 27.7447 28.5229 27.743C28.5317 27.7383 28.5404 27.7336 28.5492 27.7288C28.5518 27.7274 28.5545 27.7259 28.5571 27.7245C28.5658 27.7197 28.5744 27.715 28.583 27.7102C28.5858 27.7087 28.5886 27.7071 28.5914 27.7056C28.6004 27.7006 28.6093 27.6957 28.6182 27.6907C28.6207 27.6892 28.6233 27.6878 28.6258 27.6864C28.634 27.6818 28.642 27.6772 28.6501 27.6726C28.654 27.6704 28.6578 27.6682 28.6617 27.666C28.669 27.6618 28.6763 27.6576 28.6836 27.6534C28.7244 27.6298 28.7648 27.6057 28.8048 27.5808C28.8755 27.537 28.9454 27.4894 29.0135 27.4385C29.0476 27.413 29.0812 27.3867 29.1142 27.3595C29.1162 27.3579 29.1182 27.3562 29.1202 27.3545C29.1288 27.3475 29.1373 27.3403 29.1458 27.3332C29.1487 27.3307 29.1517 27.3281 29.1546 27.3256C29.162 27.3193 29.1694 27.3129 29.1767 27.3065C29.1802 27.3034 29.1837 27.3004 29.1871 27.2973C29.194 27.2912 29.2008 27.2851 29.2076 27.279C29.2112 27.2757 29.2149 27.2724 29.2185 27.2691C29.2251 27.2631 29.2317 27.257 29.2382 27.2508C29.2418 27.2475 29.2454 27.2442 29.2489 27.2409C29.2587 27.2316 29.2685 27.2222 29.2781 27.2128C29.2997 27.1917 29.3208 27.1702 29.3414 27.1484C29.3483 27.1411 29.3552 27.1338 29.3619 27.1265C29.3755 27.1118 29.3888 27.0969 29.4019 27.0819C29.4085 27.0744 29.4149 27.0668 29.4214 27.0593C29.4342 27.0441 29.4469 27.0287 29.4592 27.0133C29.4716 26.9978 29.4837 26.9822 29.4955 26.9664C29.5073 26.9506 29.5189 26.9347 29.5302 26.9186C29.5414 26.9026 29.5524 26.8864 29.5631 26.87C29.5738 26.8537 29.5842 26.8372 29.5943 26.8206C29.6043 26.804 29.6141 26.7872 29.6235 26.7703C29.633 26.7534 29.642 26.7364 29.6508 26.7193C29.6946 26.6336 29.7297 26.5446 29.7544 26.4529C29.7594 26.4346 29.7639 26.4161 29.768 26.3975C29.7905 26.2955 29.7999 26.1902 29.7937 26.0823C29.7909 26.0336 29.7849 25.9853 29.7769 25.9373C29.7731 25.9146 29.7689 25.8918 29.7643 25.8692L29.759 25.8438L29.753 25.8164L29.7469 25.7901C29.7444 25.7792 29.7418 25.7683 29.7391 25.7574C29.7354 25.742 29.7316 25.7266 29.7278 25.7113L29.7212 25.685C29.7168 25.6676 29.7123 25.65 29.7079 25.6325C29.7041 25.6172 29.7003 25.6019 29.6965 25.5865L29.6933 25.5737C29.6853 25.5408 29.6776 25.5078 29.6706 25.4748L29.6642 25.4433C29.6608 25.4261 29.6576 25.4089 29.6547 25.3916C29.6459 25.3399 29.6395 25.2878 29.6369 25.2352C29.6309 25.1157 29.6444 24.9973 29.6644 24.8793C29.6658 24.8714 29.6671 24.8635 29.6685 24.8557C29.6783 24.8006 29.6893 24.7456 29.7001 24.6906L29.7063 24.6593C29.7181 24.599 29.7296 24.5386 29.739 24.4781C29.7478 24.4216 29.7544 24.3649 29.759 24.3081L29.7592 24.3056C29.7602 24.2927 29.7612 24.2798 29.762 24.2669L29.7622 24.2634C29.7631 24.25 29.7638 24.2366 29.7644 24.2232C29.7648 24.2134 29.7652 24.2036 29.7655 24.1937C29.7656 24.1904 29.7658 24.1871 29.7659 24.1837C29.7663 24.171 29.7665 24.1582 29.7667 24.1455C29.7667 24.1454 29.7667 24.1452 29.7667 24.1451C29.7775 23.3439 29.394 22.5475 28.781 22.0308C28.8483 22.1261 28.9099 22.2283 28.9381 22.3371C28.9689 22.4564 28.94 22.5693 28.8954 22.6807C28.825 22.8564 28.7556 23.0273 28.7122 23.2123C28.6264 23.5775 28.6376 23.9346 28.7448 24.2936C28.8016 24.4839 28.8741 24.6694 28.9465 24.8542C29.0082 25.0119 29.0746 25.1658 29.1115 25.3318C29.161 25.554 29.1639 25.7887 29.0625 25.9971C28.8727 26.387 28.4001 26.5605 28.0386 26.7454C27.8194 26.8576 27.6014 26.979 27.4137 27.1398C27.2956 27.241 27.1984 27.3616 27.0883 27.4709C26.9519 27.6062 26.802 27.7313 26.6356 27.8283C26.3524 27.9936 26.024 28.0598 25.7045 27.9689C25.3407 27.8655 25.0274 27.5992 24.7924 27.3111C24.7105 27.2107 24.634 27.1056 24.5325 27.0235C24.3951 26.9125 24.229 26.8413 24.062 26.7881C23.7655 26.6939 23.4458 26.6392 23.2075 26.4229C22.9514 26.1903 22.8475 25.8545 22.8882 25.5166C22.9324 25.1512 23.084 24.8099 23.1978 24.463C23.2536 24.2928 23.3052 24.1177 23.3229 23.9388C23.3387 23.7791 23.3415 23.6193 23.3641 23.4599C23.4046 23.1751 23.4836 22.8928 23.624 22.6403C23.767 22.3833 23.9681 22.1852 24.2022 22.0341C23.9365 22.0952 23.6479 22.2069 23.363 22.3564C23.3619 22.357 23.3607 22.3576 23.3596 22.3582C23.3333 22.3721 23.3071 22.3862 23.2809 22.4006C23.28 22.4011 23.2791 22.4016 23.2781 22.4022C23.2662 22.4087 23.2543 22.4154 23.2424 22.4221C23.2409 22.423 23.2393 22.4238 23.2377 22.4247C23.2248 22.432 23.2119 22.4394 23.1991 22.4469C23.1988 22.4471 23.1985 22.4472 23.1982 22.4474C23.1862 22.4544 23.1742 22.4614 23.1622 22.4685C23.1598 22.4699 23.1575 22.4713 23.1551 22.4727C23.1304 22.4874 23.1058 22.5023 23.0812 22.5176C23.0787 22.5191 23.0762 22.5207 23.0737 22.5222C23.0635 22.5286 23.0532 22.535 23.043 22.5415C23.0408 22.5429 23.0385 22.5443 23.0363 22.5458C23.0243 22.5534 23.0123 22.5611 23.0003 22.5689C22.9983 22.5702 22.9962 22.5716 22.9941 22.5729C22.9842 22.5794 22.9743 22.5859 22.9644 22.5924C22.9613 22.5945 22.9583 22.5965 22.9552 22.5985C22.9434 22.6064 22.9316 22.6143 22.9199 22.6223L22.9178 22.6237L22.8918 22.6415L22.8886 22.6437C22.8747 22.6533 22.8609 22.663 22.8471 22.6728C22.8195 22.6923 22.7921 22.7121 22.765 22.7323C22.7514 22.7423 22.7379 22.7525 22.7245 22.7627L22.7222 22.7644L22.6984 22.7827L22.6933 22.7866L22.6714 22.8036L22.664 22.8094L22.643 22.8261L22.6375 22.8305C22.6041 22.8572 22.5711 22.8844 22.5387 22.9121L22.5349 22.9152L22.5155 22.9319L22.5072 22.9391L22.4888 22.9552L22.4803 22.9626L22.462 22.9789L22.4536 22.9865L22.4353 23.003L22.4283 23.0094L22.4086 23.0276L22.4073 23.0288C22.3849 23.0496 22.3629 23.0706 22.3412 23.0918L22.3337 23.099L22.3179 23.1147L22.3085 23.1241L22.293 23.1396L22.2831 23.1497L22.2688 23.1643L22.2582 23.1753L22.2434 23.1908L22.235 23.1996L22.2198 23.2158L22.2097 23.2268L22.1836 23.2554L22.1737 23.2663L22.1616 23.28L22.1505 23.2926L22.1383 23.3067L22.1276 23.3192L22.1157 23.3332L22.1052 23.3457L22.093 23.3604L22.083 23.3725L22.0716 23.3865L22.06 23.401L22.05 23.4135L22.0378 23.4291L22.0247 23.4462L22.0091 23.4667L21.9992 23.48L21.989 23.4939L21.979 23.5076L21.9688 23.5219C21.9087 23.6064 21.8549 23.6925 21.8085 23.7796L21.8039 23.7885L21.7975 23.8007L21.7886 23.8182L21.783 23.8293L21.7723 23.8512L21.7689 23.858L21.7558 23.8862L21.751 23.8969L21.743 23.915L21.7377 23.9272L21.7306 23.944L21.7255 23.9565L21.7188 23.9732L21.7139 23.9859L21.7077 24.0024L21.703 24.0151L21.6967 24.0327L21.6927 24.044L21.6852 24.0668L21.683 24.0732L21.6742 24.1017L21.671 24.1126L21.6658 24.1308L21.6624 24.1433L21.658 24.1601L21.6548 24.1731L21.6508 24.1893L21.6478 24.2027L21.6443 24.2187L21.6415 24.232L21.6383 24.2488L21.636 24.2613L21.6325 24.282L21.6304 24.295L21.627 24.3189L21.6256 24.3304L21.6235 24.3483C21.6098 24.474 21.6153 24.5996 21.643 24.7238C21.6724 24.8556 21.7188 24.9827 21.7664 25.1095C21.7695 25.1179 21.7727 25.1264 21.7759 25.1348C21.7861 25.1618 21.7963 25.1889 21.8063 25.2159C21.8175 25.2461 21.8285 25.2764 21.8392 25.3067C21.873 25.4033 21.903 25.5008 21.9221 25.6013C21.9533 25.7649 21.9554 25.9332 21.9561 26.1012C21.9562 26.1141 21.9562 26.1271 21.9563 26.14C21.9563 26.1509 21.9564 26.1617 21.9564 26.1725L21.9565 26.1787L21.9566 26.1981L21.9568 26.2175C21.9569 26.2304 21.957 26.2433 21.9572 26.2562C21.9576 26.2819 21.9581 26.3076 21.959 26.3333L21.9596 26.3533C21.9601 26.3659 21.9607 26.3784 21.9613 26.3909L21.9623 26.4101C21.9631 26.4228 21.9639 26.4356 21.9648 26.4483L21.9663 26.4673C21.9673 26.48 21.9684 26.4927 21.9697 26.5054L21.9703 26.5112C21.9721 26.5282 21.9741 26.5452 21.9763 26.5621C21.978 26.5747 21.9799 26.5872 21.9818 26.5998C21.9857 26.6248 21.9903 26.6497 21.9956 26.6745C21.9996 26.693 22.004 26.7115 22.0088 26.7299C22.0104 26.7361 22.0121 26.7422 22.0138 26.7483L22.0217 26.7751C22.0264 26.7906 22.0315 26.806 22.0369 26.8213C22.05 26.8579 22.0649 26.8935 22.0815 26.9279C22.1017 26.97 22.1245 27.0104 22.1495 27.0494C22.19 27.1127 22.2362 27.1721 22.2872 27.2281L22.3027 27.245C22.3289 27.2729 22.3562 27.3001 22.3844 27.3265L22.4015 27.3422C22.4291 27.3673 22.4577 27.3918 22.4869 27.4156C22.5002 27.4263 22.5135 27.437 22.527 27.4475C22.5456 27.462 22.5645 27.4762 22.5836 27.4902C22.6281 27.523 22.6739 27.5545 22.7204 27.585C22.7536 27.6068 22.7873 27.6281 22.8212 27.649C22.8686 27.6782 22.9165 27.7066 22.9645 27.7343C23.0124 27.762 23.0605 27.7891 23.1081 27.8157L24.8407 28.7845C25.0267 28.8885 25.2176 28.9939 25.4161 29.0708C25.4275 29.0752 25.4388 29.0795 25.4502 29.0837C25.473 29.0921 25.4959 29.1001 25.5189 29.1077C25.5361 29.1134 25.5534 29.1188 25.5708 29.124C25.5824 29.1274 25.594 29.1307 25.6056 29.134L25.6231 29.1387C25.6522 29.1463 25.6815 29.1533 25.711 29.1593L25.7287 29.1627C25.7465 29.1661 25.7643 29.1692 25.7822 29.172C25.8001 29.1747 25.818 29.1771 25.836 29.1791C25.866 29.1825 25.8963 29.1848 25.9267 29.1861L25.9498 29.1869C25.9806 29.1876 26.0114 29.1872 26.0421 29.1856C26.0575 29.1848 26.0729 29.1837 26.0882 29.1823C26.1035 29.181 26.1188 29.1793 26.1341 29.1774C26.1482 29.1756 26.1623 29.1735 26.1763 29.1713C26.1915 29.1688 26.2066 29.1661 26.2216 29.1631L26.2521 29.1566C26.2642 29.1539 26.2762 29.151 26.2882 29.1479C26.3459 29.1331 26.4024 29.1141 26.4573 29.0912C26.5175 29.0661 26.5756 29.0362 26.631 29.0017C26.6438 28.994 26.6565 28.9858 26.669 28.9774Z" fill="#4C0D33"/>
<path d="M22.0089 26.7303C22.0041 26.7118 21.9997 26.6933 21.9957 26.6748C21.9905 26.65 21.9859 26.6251 21.9819 26.6001C21.98 26.5876 21.9781 26.575 21.9765 26.5624C21.9742 26.5455 21.9722 26.5285 21.9704 26.5115C21.6695 26.7001 21.3566 26.8738 21.0336 27.0324C21.3543 26.9321 21.6789 26.8472 22.006 26.7786L22.0218 26.7754L22.0139 26.7486C22.0122 26.7425 22.0105 26.7364 22.0089 26.7303Z" fill="#DC638E"/>
<path d="M39.7755 12.4165C39.4242 11.1844 38.7617 10.1247 38.0098 9.16741C37.2485 8.19821 36.5911 8.20643 35.3464 8.71958C34.2951 9.15302 33.2438 9.58647 32.1925 10.0199C32.3259 10.1977 32.4312 10.3976 32.5143 10.6031C32.8171 11.3529 32.885 12.1698 33.0542 12.9541C33.1467 13.3825 33.2931 13.8288 33.6517 14.109C33.9666 14.355 34.3737 14.4074 34.7618 14.3811C35.2506 14.348 35.7243 14.2082 36.1997 14.0998C36.8061 13.9614 37.4138 13.8227 38.0303 13.7369C38.6217 13.6545 39.226 13.623 39.8194 13.7025C39.8813 13.7108 39.9449 13.7215 40.0062 13.7324C39.9731 13.2797 39.8951 12.8359 39.7755 12.4165Z" fill="#EF82A4"/>
<path d="M30.5867 18.9625C32.4408 17.01 34.7395 15.3607 37.4524 14.9683C38.3008 14.8456 39.1553 14.8582 39.9786 14.9901C40.0289 14.5697 40.0367 14.1469 40.0063 13.7324C39.9443 13.7214 39.8821 13.7108 39.8195 13.7024C39.226 13.623 38.6217 13.6545 38.0304 13.7369C37.4139 13.8227 36.8062 13.9614 36.1998 14.0998C35.7244 14.2082 35.2506 14.348 34.7619 14.3811C34.3738 14.4073 33.9667 14.3549 33.6518 14.109C33.2932 13.8288 33.1468 13.3825 33.0543 12.9541C32.885 12.1698 32.8172 11.3529 32.5143 10.6031C32.4313 10.3975 32.326 10.1977 32.1926 10.0199C31.8593 10.1573 31.5261 10.2947 31.1928 10.4321C31.006 10.5091 30.8144 10.5909 30.6239 10.6798C30.8445 11.1242 31.0262 11.5909 31.1627 12.0741C31.8105 14.368 31.4209 16.754 30.5867 18.9625Z" fill="#DC638E"/>
<path d="M17.1657 10.1147C15.9078 9.63478 15.2504 9.64406 14.5152 10.6331C13.7889 11.6101 13.1549 12.687 12.8364 13.928C12.8101 14.0304 12.7858 14.1375 12.7644 14.2424C12.7661 14.244 12.7704 14.2436 12.7704 14.2436C13.0861 14.3008 13.396 14.3906 13.6978 14.499C14.5491 14.8047 15.3421 15.25 16.1916 15.5604C16.6 15.7097 17.0369 15.8492 17.4741 15.8715C17.8001 15.8882 18.1274 15.8169 18.3804 15.6017C18.6253 15.3934 18.7651 15.0868 18.8588 14.7858C18.9956 14.3463 19.0515 13.8837 19.0874 13.4263C19.1523 12.6008 19.1406 11.7524 19.3818 10.9602C18.6431 10.6784 17.9044 10.3965 17.1657 10.1147Z" fill="#EF82A4"/>
<path d="M18.8588 14.7858C18.7651 15.0867 18.6253 15.3934 18.3804 15.6017C18.1274 15.8169 17.8001 15.8881 17.4741 15.8715C17.0369 15.8492 16.6001 15.7097 16.1916 15.5604C15.3421 15.2499 14.5491 14.8046 13.6978 14.499C13.3941 14.3899 13.0822 14.2995 12.7644 14.2424C12.6216 14.9445 12.5903 15.6966 12.6915 16.4396C15.6506 16.2951 18.4286 17.6394 20.7624 19.3573C20.1858 17.9647 19.8711 16.4441 19.8716 14.9173C19.872 13.7076 20.071 12.5025 20.4429 11.365L19.3818 10.9602C19.1407 11.7524 19.1523 12.6008 19.0875 13.4263C19.0515 13.8836 18.9956 14.3463 18.8588 14.7858Z" fill="#DC638E"/>
<path d="M30.7923 40.8613L30.7712 40.858C30.3861 40.7854 30.023 40.6332 29.6942 40.4212C29.3467 40.1971 29.0417 39.9132 28.7638 39.6086C28.6154 39.446 28.4745 39.2767 28.3384 39.1038C28.1885 38.9134 28.05 38.7175 27.8665 38.5569C27.5804 38.3065 27.2095 38.1412 26.825 38.2244C26.4116 38.3139 26.1085 38.6555 25.9031 39.0052C25.478 39.7285 25.1114 40.4921 24.6108 41.1685C24.3999 41.4535 24.1576 41.7196 23.8856 41.9477C24.0343 42.0663 24.1872 42.1783 24.3428 42.281C25.4119 42.9869 26.6048 43.3594 27.7989 43.5959C29.0079 43.8354 29.5013 43.401 30.1114 42.2008" fill="#EF82A4"/>
<path d="M26.5924 32.7524C26.3337 35.7147 25.4629 38.7414 23.2554 40.8001C23.1606 40.8886 23.0636 40.9747 22.9648 41.0582C23.2458 41.3876 23.5564 41.6861 23.8857 41.9477C24.1584 41.7193 24.3994 41.4541 24.6109 41.1685C25.1115 40.4921 25.4781 39.7285 25.9031 39.0052C26.1086 38.6555 26.4116 38.3139 26.825 38.2244C27.2096 38.1412 27.5804 38.3065 27.8666 38.5569C28.05 38.7175 28.1886 38.9134 28.3384 39.1038C28.4745 39.2767 28.6155 39.446 28.7638 39.6086C29.0417 39.9132 29.3468 40.1971 29.6942 40.4212C30.0231 40.6332 30.3861 40.7854 30.7712 40.858L30.7924 40.8613C30.9507 40.5499 31.1091 40.2384 31.2674 39.9269C30.9643 39.7483 30.6715 39.5495 30.3919 39.3308C28.3259 37.7145 27.1987 35.273 26.5924 32.7524Z" fill="#DC638E"/>
<path d="M21.6235 24.3486L21.6226 24.357L17.0148 23.2826C18.5047 23.9098 20.0565 24.5467 21.643 24.7241V24.7241C21.6153 24.5999 21.6098 24.4743 21.6235 24.3486Z" fill="#61043B"/>
<path d="M15.953 20.4923L21.8086 23.7799C21.855 23.6927 21.9088 23.6066 21.9689 23.5221L21.9637 23.5294C20.2871 22.0618 18.0784 21.2494 15.953 20.4923Z" fill="#61043B"/>
<path d="M21.9957 26.6748C21.9997 26.6933 22.0041 26.7119 22.0089 26.7303C22.0041 26.7119 21.9997 26.6933 21.9957 26.6748Z" fill="#61043B"/>
<path d="M23.6472 28.1175C21.7107 29.3393 20.303 31.3064 18.9747 33.2042L23.8789 28.247L23.6472 28.1175Z" fill="#61043B"/>
<path d="M24.3437 28.5069L21.9468 32.9204C22.9854 31.601 24.0517 30.2201 24.6309 28.6674L24.3437 28.5069Z" fill="#61043B"/>
<path d="M29.7206 23.6329C29.718 23.6181 29.7157 23.6033 29.7126 23.5886L33.7249 22.1304C32.3317 22.3828 30.8948 22.6549 29.6014 23.2008C29.5958 23.1857 29.5894 23.1709 29.5831 23.156C29.5827 23.1562 29.5825 23.1564 29.5822 23.1565C29.6424 23.311 29.6885 23.4707 29.7197 23.633C29.72 23.633 29.7203 23.6329 29.7206 23.6329Z" fill="#61043B"/>
<path d="M29.1115 25.3319C29.0745 25.1659 29.0081 25.012 28.9464 24.8543C28.874 24.6695 28.8015 24.484 28.7447 24.2937C28.6375 23.9347 28.6263 23.5776 28.7121 23.2124C28.7556 23.0274 28.825 22.8565 28.8953 22.6808C28.9399 22.5694 28.9689 22.4564 28.938 22.3372C28.9098 22.2284 28.8482 22.1262 28.7809 22.0309C28.7315 21.9857 28.7341 21.9858 28.6809 21.9452L28.6585 21.9284C28.4759 21.7924 28.2756 21.6806 28.0612 21.5995C27.7086 21.466 27.3075 21.4112 26.957 21.5501C26.7399 21.6362 26.5563 21.7903 26.3451 21.8899C26.8561 19.7172 26.5343 17.3816 26.203 15.146L26.0509 21.9896C25.8646 22.0312 25.671 22.0394 25.4747 22.0336L24.2393 17.3948C24.3812 18.9516 24.5423 20.5635 25.0855 22.0098C24.9484 21.999 24.8117 21.9877 24.6766 21.9824C24.5322 21.9768 24.3711 21.9959 24.201 22.0351C23.9674 22.186 23.7666 22.3838 23.6239 22.6404C23.4835 22.8929 23.4044 23.1752 23.364 23.46C23.3414 23.6194 23.3386 23.7792 23.3228 23.9389C23.305 24.1178 23.2535 24.2929 23.1977 24.4631C23.0839 24.81 22.9322 25.1513 22.8881 25.5167C22.8473 25.8546 22.9513 26.1905 23.2074 26.423C23.4456 26.6393 23.7653 26.694 24.0619 26.7883C24.2289 26.8414 24.3949 26.9127 24.5324 27.0237C24.6339 27.1057 24.7104 27.2108 24.7922 27.3112C25.0273 27.5994 25.3405 27.8656 25.7043 27.969C26.0239 28.0599 26.3522 27.9937 26.6355 27.8285C26.8019 27.7314 26.9518 27.6064 27.0882 27.471C27.1983 27.3617 27.2955 27.2411 27.4136 27.14C27.6013 26.9791 27.8193 26.8577 28.0385 26.7455C28.4 26.5606 28.8726 26.3871 29.0624 25.9972C29.1639 25.7888 29.1609 25.5541 29.1115 25.3319Z" fill="#61043B"/>
<path d="M29.7063 24.6594C31.8315 24.8985 34.031 24.3936 36.1383 23.8881L29.7589 24.3103L29.759 24.3082C29.7544 24.365 29.7477 24.4217 29.739 24.4782C29.7296 24.5387 29.7182 24.5991 29.7063 24.6594Z" fill="#61043B"/>
<path d="M30.9081 34.0145L28.1323 27.945C28.0404 27.9918 27.9486 28.0387 27.858 28.0873C28.3593 30.2335 29.6507 32.1699 30.9081 34.0145Z" fill="#61043B"/>
<path d="M29.013 27.4389L28.8049 27.5809C28.7658 27.6051 28.7304 27.6263 28.6906 27.6494L31.6948 31.1344C30.9105 29.8323 30.0872 28.491 29.013 27.4389Z" fill="#61043B"/>
<path d="M24.5404 23.7243C24.5113 23.6758 24.5449 23.6154 24.5492 23.559C24.5541 23.4955 24.516 23.431 24.4581 23.4045C24.3477 23.3541 24.0679 23.4869 24.1658 23.637C24.1846 23.6659 24.2172 23.6855 24.2295 23.7177C24.2456 23.7596 24.2216 23.8053 24.2171 23.85C24.2084 23.9372 24.2835 24.0197 24.3702 24.0324C24.4568 24.0451 24.5455 23.9968 24.595 23.9246C24.6206 23.8874 24.6368 23.8364 24.6132 23.7979C24.5952 23.7682 24.5582 23.754 24.5404 23.7243Z" fill="#4C0D33"/>
<path d="M26.3037 22.9725C26.2746 22.9241 26.3082 22.8636 26.3125 22.8073C26.3174 22.7438 26.2793 22.6792 26.2215 22.6527C26.111 22.6023 25.8313 22.7352 25.9291 22.8852C25.9479 22.9141 25.9805 22.9337 25.9928 22.9659C26.0089 23.0079 25.9849 23.0535 25.9804 23.0983C25.9717 23.1854 26.0468 23.2679 26.1335 23.2806C26.2201 23.2933 26.3088 23.2451 26.3583 23.1729C26.3839 23.1356 26.4001 23.0846 26.3765 23.0461C26.3585 23.0165 26.3216 23.0023 26.3037 22.9725Z" fill="#4C0D33"/>
<path d="M24.0848 25.1554C24.0761 25.1831 24.0808 25.2148 24.0665 25.2401C24.0478 25.273 24.0053 25.2819 23.9738 25.303C23.9124 25.3441 23.8991 25.4371 23.9373 25.5002C23.9755 25.5634 24.0544 25.5952 24.128 25.5887C24.1659 25.5853 24.2077 25.5685 24.2201 25.5325C24.2297 25.5049 24.2191 25.4733 24.2289 25.4457C24.2448 25.4008 24.3021 25.3902 24.3411 25.3628C24.3849 25.332 24.4065 25.2726 24.3927 25.2208C24.3662 25.1219 24.1299 25.0113 24.0848 25.1554Z" fill="#4C0D33"/>
<path d="M26.0626 24.5528C26.1006 24.5494 26.1424 24.5326 26.1548 24.4966C26.1644 24.4689 26.1538 24.4373 26.1636 24.4098C26.1795 24.3649 26.2368 24.3543 26.2757 24.3269C26.3196 24.296 26.3412 24.2366 26.3274 24.1848C26.3009 24.086 26.0645 23.9754 26.0194 24.1195C26.0108 24.1472 26.0155 24.1789 26.0012 24.2042C25.9825 24.2371 25.94 24.246 25.9085 24.2671C25.8471 24.3081 25.8338 24.4012 25.872 24.4643C25.9102 24.5275 25.9891 24.5593 26.0626 24.5528Z" fill="#4C0D33"/>
<path d="M27.9476 23.1655C27.9212 23.0666 27.6848 22.956 27.6397 23.1001C27.631 23.1278 27.6357 23.1595 27.6214 23.1848C27.6028 23.2178 27.5602 23.2266 27.5287 23.2477C27.4674 23.2888 27.4541 23.3818 27.4922 23.445C27.5305 23.5082 27.6094 23.5399 27.6829 23.5334C27.7208 23.5301 27.7626 23.5133 27.775 23.4773C27.7846 23.4496 27.774 23.418 27.7838 23.3904C27.7997 23.3455 27.857 23.335 27.896 23.3076C27.9399 23.2767 27.9614 23.2173 27.9476 23.1655Z" fill="#4C0D33"/>
<path d="M25.5179 25.5165C25.5092 25.5443 25.5139 25.5759 25.4996 25.6012C25.4809 25.6342 25.4384 25.6431 25.4069 25.6641C25.3455 25.7052 25.3322 25.7983 25.3704 25.8614C25.4086 25.9246 25.4875 25.9563 25.561 25.9499C25.599 25.9465 25.6408 25.9297 25.6532 25.8937C25.6628 25.8661 25.6522 25.8344 25.662 25.8069C25.6779 25.762 25.7352 25.7514 25.7741 25.724C25.818 25.6932 25.8396 25.6338 25.8257 25.582C25.7993 25.483 25.563 25.3724 25.5179 25.5165Z" fill="#4C0D33"/>
<path d="M28.0021 24.4811C27.9934 24.5088 27.9982 24.5405 27.9839 24.5657C27.9652 24.5987 27.9226 24.6076 27.8911 24.6287C27.8298 24.6697 27.8165 24.7627 27.8547 24.8259C27.8929 24.8891 27.9718 24.9208 28.0453 24.9143C28.0832 24.911 28.1251 24.8942 28.1375 24.8582C28.147 24.8305 28.1364 24.7989 28.1462 24.7714C28.1621 24.7265 28.2195 24.7159 28.2584 24.6885C28.3023 24.6577 28.3238 24.5983 28.31 24.5464C28.2836 24.4475 28.0472 24.3369 28.0021 24.4811Z" fill="#4C0D33"/>
<path d="M27.2513 25.8656C27.2426 25.8933 27.2473 25.925 27.233 25.9503C27.2143 25.9832 27.1718 25.9921 27.1403 26.0132C27.0789 26.0543 27.0656 26.1473 27.1038 26.2105C27.142 26.2736 27.2209 26.3054 27.2944 26.2989C27.3324 26.2956 27.3742 26.2788 27.3866 26.2428C27.3962 26.2151 27.3856 26.1835 27.3954 26.1559C27.4113 26.1111 27.4686 26.1005 27.5075 26.0731C27.5514 26.0422 27.573 25.9828 27.5591 25.931C27.5327 25.8321 27.2964 25.7215 27.2513 25.8656Z" fill="#4C0D33"/>
<path d="M26.0364 26.9261C26.0277 26.9538 26.0325 26.9855 26.0182 27.0108C25.9995 27.0437 25.9569 27.0526 25.9254 27.0737C25.8641 27.1148 25.8508 27.2078 25.889 27.2709C25.9272 27.3341 26.0061 27.3659 26.0796 27.3594C26.1175 27.3561 26.1594 27.3393 26.1718 27.3033C26.1813 27.2756 26.1708 27.244 26.1806 27.2164C26.1965 27.1715 26.2538 27.1609 26.2927 27.1336C26.3366 27.1027 26.3582 27.0433 26.3443 26.9915C26.3179 26.8926 26.0815 26.782 26.0364 26.9261Z" fill="#4C0D33"/>
</svg>
